<svg xmlns="http://www.w3.org/2000/svg" width="1200" height="630" viewBox="0 0 1200 630" role="img" aria-labelledby="t"><title id="t">Modulos de producto en React y Next.js</title><rect width="1200" height="630" fill="#FFFFFF"/>
<rect x="230" y="130" width="230" height="370" rx="12" fill="#FAFAFA" stroke="#E4E4E7" stroke-width="3"/>
<rect x="485" y="130" width="230" height="370" rx="12" fill="#FAFAFA" stroke="#E4E4E7" stroke-width="3"/>
<rect x="740" y="130" width="230" height="370" rx="12" fill="#FAFAFA" stroke="#E4E4E7" stroke-width="3"/>
<rect x="258" y="160" width="90" height="14" rx="7" fill="#E4E4E7"/>
<rect x="513" y="160" width="90" height="14" rx="7" fill="#E4E4E7"/>
<rect x="768" y="160" width="90" height="14" rx="7" fill="#E4E4E7"/>
<rect x="258" y="198" width="174" height="66" rx="8" fill="#FFFFFF" stroke="#E4E4E7" stroke-width="2"/>
<rect x="280" y="222" width="96" height="18" rx="4" fill="#E4E4E7"/>
<rect x="258" y="284" width="174" height="66" rx="8" fill="#FFFFFF" stroke="#E4E4E7" stroke-width="2"/>
<rect x="280" y="308" width="96" height="18" rx="4" fill="#E4E4E7"/>
<rect x="513" y="198" width="174" height="66" rx="8" fill="#EEF2FF" stroke="#4F46E5" stroke-width="2"/>
<rect x="535" y="222" width="96" height="18" rx="4" fill="#4F46E5"/>
<rect x="513" y="284" width="174" height="66" rx="8" fill="#EEF2FF" stroke="#4F46E5" stroke-width="2"/>
<rect x="535" y="308" width="96" height="18" rx="4" fill="#4F46E5"/>
<rect x="513" y="370" width="174" height="66" rx="8" fill="#EEF2FF" stroke="#4F46E5" stroke-width="2"/>
<rect x="535" y="394" width="96" height="18" rx="4" fill="#4F46E5"/>
<rect x="768" y="198" width="174" height="66" rx="8" fill="#FFFFFF" stroke="#4338CA" stroke-width="3"/>
<rect x="790" y="222" width="96" height="18" rx="4" fill="#4338CA"/>
<rect y="626" width="1200" height="4" fill="#4F46E5"/></svg>
