<svg xmlns="http://www.w3.org/2000/svg" width="1200" height="630" viewBox="0 0 1200 630" role="img" aria-labelledby="t"><title id="t">Optimizacion de SEO internacional</title><rect width="1200" height="630" fill="#FFFFFF"/>
<path d="M215 455h800" stroke="#E4E4E7" stroke-width="3"/>
<path d="M215 455V165" stroke="#E4E4E7" stroke-width="3"/>
<rect x="265" y="380" width="72" height="75" rx="6" fill="#EEF2FF"/>
<rect x="367" y="330" width="72" height="125" rx="6" fill="#EEF2FF"/>
<rect x="469" y="285" width="72" height="170" rx="6" fill="#4F46E5" opacity=".3"/>
<rect x="571" y="240" width="72" height="215" rx="6" fill="#4F46E5" opacity=".55"/>
<rect x="673" y="195" width="72" height="260" rx="6" fill="#4F46E5"/>
<path d="M300 400 402 350 504 305 606 258 708 212" fill="none" stroke="#4338CA" stroke-width="5" stroke-linecap="round" stroke-linejoin="round"/>
<circle cx="300" cy="400" r="9" fill="#4338CA"/><circle cx="708" cy="212" r="9" fill="#4338CA"/>
<circle cx="905" cy="270" r="88" fill="none" stroke="#4F46E5" stroke-width="8"/>
<circle cx="905" cy="270" r="42" fill="#EEF2FF"/>
<path d="M968 333l72 72" stroke="#4F46E5" stroke-width="14" stroke-linecap="round"/>
<rect y="626" width="1200" height="4" fill="#4F46E5"/></svg>
