<svg xmlns="http://www.w3.org/2000/svg" width="1200" height="630" viewBox="0 0 1200 630" role="img" aria-labelledby="t">
  <title id="t">Portal de documentación de APIs</title>
  <rect width="1200" height="630" fill="#FFFFFF"/>
  <g transform="translate(1120 535)" fill="none" stroke-width="3">
    <path d="M-90 0 A90 90 0 0 1 0 -90" stroke="#4F46E5"/>
    <path d="M-170 0 A170 170 0 0 1 0 -170" stroke="#E4E4E7"/>
    <path d="M-250 0 A250 250 0 0 1 0 -250" stroke="#E4E4E7"/>
    <path d="M-330 0 A330 330 0 0 1 0 -330" stroke="#4338CA"/>
    <path d="M-410 0 A410 410 0 0 1 0 -410" stroke="#E4E4E7"/>
  </g>
  <path d="M1120 535 A45 45 0 0 1 1075 490 L1120 490 Z" fill="#EEF2FF"/>
  <text x="88" y="290" font-family="Inter, system-ui, sans-serif" font-size="21" font-weight="500" letter-spacing="3.4" fill="#4F46E5">DOCUMENTACIÓN</text>
  <text x="88" y="360" font-family="Inter, system-ui, sans-serif" font-size="54" font-weight="600" fill="#18181B">Portal de APIs</text>
  <text x="88" y="424" font-family="Inter, system-ui, sans-serif" font-size="54" font-weight="600" fill="#18181B">desde OpenAPI</text>
  <rect y="626" width="1200" height="4" fill="#4F46E5"/>
</svg>
