<svg xmlns="http://www.w3.org/2000/svg" width="1200" height="630" viewBox="0 0 1200 630" role="img" aria-labelledby="t"><title id="t">Refactorizacion de arquitectura monolito</title><rect width="1200" height="630" fill="#FFFFFF"/>
<rect x="170" y="175" width="230" height="280" rx="12" fill="#EEF2FF" stroke="#4F46E5" stroke-width="3"/>
<rect x="205" y="215" width="160" height="28" rx="6" fill="#4F46E5" opacity=".35"/>
<rect x="205" y="259" width="160" height="28" rx="6" fill="#4F46E5" opacity=".35"/>
<rect x="205" y="303" width="160" height="28" rx="6" fill="#4F46E5" opacity=".35"/>
<rect x="205" y="347" width="160" height="28" rx="6" fill="#4F46E5" opacity=".35"/>
<rect x="205" y="391" width="160" height="28" rx="6" fill="#4F46E5" opacity=".35"/>
<path d="M455 315h90" stroke="#E4E4E7" stroke-width="4"/><path d="M528 300l22 15-22 15z" fill="#4F46E5"/>
<rect x="620" y="150" width="185" height="86" rx="10" fill="#FFFFFF" stroke="#E4E4E7" stroke-width="3"/>
<rect x="650" y="182" width="125" height="22" rx="5" fill="#4F46E5"/>
<rect x="620" y="272" width="185" height="86" rx="10" fill="#FFFFFF" stroke="#4F46E5" stroke-width="3"/>
<rect x="650" y="304" width="125" height="22" rx="5" fill="#4F46E5"/>
<rect x="620" y="394" width="185" height="86" rx="10" fill="#FFFFFF" stroke="#E4E4E7" stroke-width="3"/>
<rect x="650" y="426" width="125" height="22" rx="5" fill="#4338CA"/>
<rect x="855" y="211" width="185" height="86" rx="10" fill="#FFFFFF" stroke="#E4E4E7" stroke-width="3"/>
<rect x="885" y="243" width="125" height="22" rx="5" fill="#4338CA"/>
<rect x="855" y="333" width="185" height="86" rx="10" fill="#FFFFFF" stroke="#E4E4E7" stroke-width="3"/>
<rect x="885" y="365" width="125" height="22" rx="5" fill="#4F46E5"/>
<rect y="626" width="1200" height="4" fill="#4F46E5"/></svg>
