<svg xmlns="http://www.w3.org/2000/svg" width="1200" height="630" viewBox="0 0 1200 630" role="img" aria-labelledby="t"><title id="t">Web APIs para contenido global</title><rect width="1200" height="630" fill="#FFFFFF"/>
<rect x="150" y="130" width="270" height="130" rx="12" fill="#FFFFFF" stroke="#E4E4E7" stroke-width="3"/>
<rect x="186" y="176" width="150" height="20" rx="5" fill="#E4E4E7"/>
<rect x="186" y="208" width="100" height="16" rx="4" fill="#E4E4E7"/>
<rect x="150" y="370" width="270" height="130" rx="12" fill="#FFFFFF" stroke="#E4E4E7" stroke-width="3"/>
<rect x="186" y="416" width="150" height="20" rx="5" fill="#E4E4E7"/>
<rect x="186" y="448" width="100" height="16" rx="4" fill="#E4E4E7"/>
<rect x="780" y="130" width="270" height="130" rx="12" fill="#FFFFFF" stroke="#E4E4E7" stroke-width="3"/>
<rect x="816" y="176" width="150" height="20" rx="5" fill="#E4E4E7"/>
<rect x="816" y="208" width="100" height="16" rx="4" fill="#E4E4E7"/>
<rect x="780" y="370" width="270" height="130" rx="12" fill="#FFFFFF" stroke="#E4E4E7" stroke-width="3"/>
<rect x="816" y="416" width="150" height="20" rx="5" fill="#E4E4E7"/>
<rect x="816" y="448" width="100" height="16" rx="4" fill="#E4E4E7"/>
<rect x="475" y="235" width="250" height="160" rx="16" fill="#4F46E5"/>
<rect x="522" y="285" width="156" height="24" rx="6" fill="#FFFFFF" opacity=".95"/>
<rect x="522" y="325" width="104" height="24" rx="6" fill="#FFFFFF" opacity=".55"/>
<g fill="none" stroke="#4338CA" stroke-width="5" stroke-linecap="round">
<path d="M420 195h55v55"/><path d="M420 435h55v-55"/>
<path d="M780 195h-55v55"/><path d="M780 435h-55v-55"/>
</g>
<g fill="#4338CA">
<path d="M462 258l13-22 13 22z"/><path d="M462 372l13 22 13-22z"/>
<path d="M712 258l13-22 13 22z"/><path d="M712 372l13 22 13-22z"/>
</g>
<rect y="626" width="1200" height="4" fill="#4F46E5"/></svg>
